<?xml version="1.0" encoding="UTF-8"?>
<svg width="145px" height="54px" viewBox="0 0 145 54" version="1.1" xmlns="http://www.w3.org/2000/svg" xmlns:xlink="http://www.w3.org/1999/xlink">
    <!-- Generator: Sketch 50.2 (55047) - http://www.bohemiancoding.com/sketch -->
    <title>Group 3</title>
    <desc>Created with Sketch.</desc>
    <defs></defs>
    <g id="Page-1" stroke="none" stroke-width="1" fill="none" fill-rule="evenodd">
        <g id="Desktop-HD" transform="translate(-74.000000, 0.000000)">
            <g id="Group-2" transform="translate(74.000000, -1.000000)">
                <g id="Group-3">
                    <g id="icon_logo" transform="translate(0.000000, 23.000000)" fill="#000000" fill-rule="nonzero">
                        <path d="M30.5952902,4.11431312 L28.8919122,5.81769116 C29.2587936,6.42042493 29.4684402,7.11487906 29.4684402,7.87484772 C29.4684402,10.0499305 27.7126505,11.8057201 25.5375677,11.8057201 C24.790702,11.8057201 24.083145,11.5960736 23.4804112,11.2291922 L21.7770331,12.9325702 C22.8252658,13.7056418 24.1224537,14.1773465 25.5244648,14.1773465 C28.9967355,14.1773465 31.8138607,11.3602213 31.8138607,7.88795063 C31.8400665,6.45973366 31.3814647,5.16254576 30.5952902,4.11431312 Z" id="Shape"></path>
                        <path d="M21.6197982,7.86174482 C21.6197982,5.68666208 23.3755879,3.93087241 25.5506707,3.93087241 C26.2975364,3.93087241 27.0050934,4.14051894 27.6078272,4.50740036 L29.3112053,2.80402232 C28.2629726,2.03095074 26.9657847,1.55924606 25.5637736,1.55924606 C22.0915029,1.55924606 19.2743777,4.37637128 19.2743777,7.84864191 C19.2743777,9.25065307 19.7329795,10.547841 20.519154,11.5960736 L22.222532,9.89269556 C21.8294448,9.31616761 21.6197982,8.60861057 21.6197982,7.86174482 Z" id="Shape"></path>
                        <path d="M2.72463768,13.9130435 L0.753623188,13.9130435 C0.71884058,13.9130435 0.695652174,13.8867215 0.695652174,13.8472385 L0.695652174,4.23971798 C0.695652174,4.20023502 0.71884058,4.17391304 0.753623188,4.17391304 L2.72463768,4.17391304 C2.75942029,4.17391304 2.7826087,4.20023502 2.7826087,4.23971798 L2.7826087,13.8472385 C2.7826087,13.8867215 2.75942029,13.9130435 2.72463768,13.9130435 Z" id="Shape"></path>
                        <path d="M40.1342073,1.83440712 C37.041921,1.88681876 34.5916772,4.46809164 34.5916772,7.56037793 L34.5916772,13.823568 C34.5916772,13.8628767 34.617883,13.8890825 34.6571917,13.8890825 L36.8846861,13.8890825 C36.9239948,13.8890825 36.9502006,13.8628767 36.9502006,13.823568 L36.9502006,7.54727502 C36.9502006,5.7128679 38.4570351,4.16672475 40.2914422,4.19293057 C42.0734377,4.23223929 43.5016546,5.67355918 43.5016546,7.46865758 L43.5016546,13.823568 C43.5016546,13.8628767 43.5278605,13.8890825 43.5671692,13.8890825 L45.7946636,13.8890825 C45.8339723,13.8890825 45.8601781,13.8628767 45.8601781,13.823568 L45.8601781,7.46865758 C45.8601781,4.32395965 43.2789052,1.78199549 40.1342073,1.83440712 Z" id="Shape"></path>
                        <circle id="Oval" cx="1.73913043" cy="1.73913043" r="1.73913043"></circle>
                        <circle id="Oval" cx="32.3478261" cy="1.73913043" r="1.73913043"></circle>
                        <circle id="Oval" cx="19.1304348" cy="14.2608696" r="1.73913043"></circle>
                        <path d="M11.8712347,4.19293057 L15.6579751,4.19293057 C15.6972838,4.19293057 15.7234896,4.16672475 15.7234896,4.12741603 L15.7234896,1.89992166 C15.7234896,1.86061294 15.6972838,1.83440712 15.6579751,1.83440712 L11.8974405,1.83440712 C8.59550767,1.83440712 5.83079407,4.45498873 5.76527953,7.75692155 C5.7128679,11.1374718 8.42516986,13.8890825 11.7926172,13.8890825 L15.6579751,13.8890825 C15.6972838,13.8890825 15.7234896,13.8628767 15.7234896,13.823568 L15.7234896,11.5960736 C15.7234896,11.5567649 15.6972838,11.5305591 15.6579751,11.5305591 L11.7926172,11.5305591 C9.73546066,11.5305591 8.07139134,9.82718102 8.12380298,7.75692155 C8.17621461,5.76527953 9.86648974,4.19293057 11.8712347,4.19293057 Z" id="Shape"></path>
                    </g>
                    <rect id="Rectangle-4" fill="#F0F0F0" x="70" y="0" width="1" height="55"></rect>
                    <path d="M94.008,35 L94.008,25.088 L95.688,25.088 L95.688,35 L94.008,35 Z M101.162,35 L101.162,33.978 L101.134,33.978 C101.031333,34.3326684 100.856335,34.6313321 100.609,34.874 C100.361665,35.1166679 100.004669,35.238 99.538,35.238 C99.1739982,35.238 98.8473348,35.140001 98.558,34.944 C98.2686652,34.747999 98.026001,34.4750018 97.83,34.125 C97.633999,33.7749982 97.4846672,33.3643357 97.382,32.893 C97.2793328,32.4216643 97.228,31.9106694 97.228,31.36 C97.228,30.818664 97.2769995,30.3193356 97.375,29.862 C97.4730005,29.4046644 97.619999,29.010335 97.816,28.679 C98.012001,28.347665 98.2523319,28.0886676 98.537,27.902 C98.8216681,27.7153324 99.1553314,27.622 99.538,27.622 C99.930002,27.622 100.261332,27.7316656 100.532,27.951 C100.802668,28.1703344 100.989333,28.4433317 101.092,28.77 L101.134,28.77 L101.134,24.416 L102.688,24.416 L102.688,35 L101.162,35 Z M101.19,31.43 C101.19,31.0846649 101.164334,30.7650015 101.113,30.471 C101.061666,30.1769985 100.987,29.9203344 100.889,29.701 C100.791,29.4816656 100.665001,29.3090006 100.511,29.183 C100.356999,29.0569994 100.182001,28.994 99.986,28.994 C99.7806656,28.994 99.6033341,29.0569994 99.454,29.183 C99.3046659,29.3090006 99.1833338,29.4816656 99.09,29.701 C98.9966662,29.9203344 98.9266669,30.1769985 98.88,30.471 C98.8333331,30.7650015 98.81,31.0846649 98.81,31.43 C98.81,31.7660017 98.8333331,32.0809985 98.88,32.375 C98.9266669,32.6690015 98.9966662,32.9256656 99.09,33.145 C99.1833338,33.3643344 99.3046659,33.5369994 99.454,33.663 C99.6033341,33.7890006 99.7806656,33.852 99.986,33.852 C100.191334,33.852 100.368666,33.7890006 100.518,33.663 C100.667334,33.5369994 100.791,33.3643344 100.889,33.145 C100.987,32.9256656 101.061666,32.6690015 101.113,32.375 C101.164334,32.0809985 101.19,31.7660017 101.19,31.43 Z M109.66,31.444 C109.66,32.0040028 109.597001,32.517331 109.471,32.984 C109.344999,33.450669 109.163001,33.849665 108.925,34.181 C108.686999,34.512335 108.400002,34.7713324 108.064,34.958 C107.727998,35.1446676 107.345335,35.238 106.916,35.238 C106.486665,35.238 106.104002,35.1446676 105.768,34.958 C105.431998,34.7713324 105.145001,34.512335 104.907,34.181 C104.668999,33.849665 104.487001,33.450669 104.361,32.984 C104.234999,32.517331 104.172,32.0040028 104.172,31.444 C104.172,30.8746638 104.234999,30.3543357 104.361,29.883 C104.487001,29.4116643 104.666665,29.0080017 104.9,28.672 C105.133335,28.3359983 105.420332,28.0770009 105.761,27.895 C106.101668,27.7129991 106.486665,27.622 106.916,27.622 C107.345335,27.622 107.727998,27.7129991 108.064,27.895 C108.400002,28.0770009 108.686999,28.3359983 108.925,28.672 C109.163001,29.0080017 109.344999,29.4116643 109.471,29.883 C109.597001,30.3543357 109.66,30.8746638 109.66,31.444 Z M108.092,31.43 C108.092,31.0846649 108.068667,30.7650015 108.022,30.471 C107.975333,30.1769985 107.903,29.9203344 107.805,29.701 C107.707,29.4816656 107.585667,29.3090006 107.441,29.183 C107.296333,29.0569994 107.121334,28.994 106.916,28.994 C106.710666,28.994 106.535667,29.0569994 106.391,29.183 C106.246333,29.3090006 106.127334,29.4816656 106.034,29.701 C105.940666,29.9203344 105.870667,30.1769985 105.824,30.471 C105.777333,30.7650015 105.754,31.0846649 105.754,31.43 C105.754,31.7660017 105.777333,32.0833318 105.824,32.382 C105.870667,32.6806682 105.940666,32.9373323 106.034,33.152 C106.127334,33.3666677 106.246333,33.5369994 106.391,33.663 C106.535667,33.7890006 106.710666,33.852 106.916,33.852 C107.121334,33.852 107.298666,33.7890006 107.448,33.663 C107.597334,33.5369994 107.718666,33.3666677 107.812,33.152 C107.905334,32.9373323 107.975333,32.6806682 108.022,32.382 C108.068667,32.0833318 108.092,31.7660017 108.092,31.43 Z M111.144,35 L111.144,24.416 L112.74,24.416 L112.74,35 L111.144,35 Z M117.178,26.516 L117.178,35 L115.526,35 L115.526,26.516 L113.664,26.516 L113.664,25.088 L119.04,25.088 L119.04,26.516 L117.178,26.516 Z M125.032,31.444 C125.032,32.0040028 124.969001,32.517331 124.843,32.984 C124.716999,33.450669 124.535001,33.849665 124.297,34.181 C124.058999,34.512335 123.772002,34.7713324 123.436,34.958 C123.099998,35.1446676 122.717335,35.238 122.288,35.238 C121.858665,35.238 121.476002,35.1446676 121.14,34.958 C120.803998,34.7713324 120.517001,34.512335 120.279,34.181 C120.040999,33.849665 119.859001,33.450669 119.733,32.984 C119.606999,32.517331 119.544,32.0040028 119.544,31.444 C119.544,30.8746638 119.606999,30.3543357 119.733,29.883 C119.859001,29.4116643 120.038666,29.0080017 120.272,28.672 C120.505335,28.3359983 120.792332,28.0770009 121.133,27.895 C121.473668,27.7129991 121.858665,27.622 122.288,27.622 C122.717335,27.622 123.099998,27.7129991 123.436,27.895 C123.772002,28.0770009 124.058999,28.3359983 124.297,28.672 C124.535001,29.0080017 124.716999,29.4116643 124.843,29.883 C124.969001,30.3543357 125.032,30.8746638 125.032,31.444 Z M123.464,31.43 C123.464,31.0846649 123.440667,30.7650015 123.394,30.471 C123.347333,30.1769985 123.275,29.9203344 123.177,29.701 C123.079,29.4816656 122.957667,29.3090006 122.813,29.183 C122.668333,29.0569994 122.493334,28.994 122.288,28.994 C122.082666,28.994 121.907667,29.0569994 121.763,29.183 C121.618333,29.3090006 121.499334,29.4816656 121.406,29.701 C121.312666,29.9203344 121.242667,30.1769985 121.196,30.471 C121.149333,30.7650015 121.126,31.0846649 121.126,31.43 C121.126,31.7660017 121.149333,32.0833318 121.196,32.382 C121.242667,32.6806682 121.312666,32.9373323 121.406,33.152 C121.499334,33.3666677 121.618333,33.5369994 121.763,33.663 C121.907667,33.7890006 122.082666,33.852 122.288,33.852 C122.493334,33.852 122.670666,33.7890006 122.82,33.663 C122.969334,33.5369994 123.090666,33.3666677 123.184,33.152 C123.277334,32.9373323 123.347333,32.6806682 123.394,32.382 C123.440667,32.0833318 123.464,31.7660017 123.464,31.43 Z M130.03,35 L128.14,31.57 L128.112,31.57 L128.112,35 L126.53,35 L126.53,24.416 L128.112,24.416 L128.112,30.87 L128.14,30.87 L129.96,27.86 L131.794,27.86 L129.554,31.15 L131.892,35 L130.03,35 Z M133.992,31.836 C133.992,32.1160014 134.02,32.3796654 134.076,32.627 C134.132,32.8743346 134.213666,33.0889991 134.321,33.271 C134.428334,33.4530009 134.558999,33.5976661 134.713,33.705 C134.867001,33.8123339 135.046666,33.866 135.252,33.866 C135.541335,33.866 135.772332,33.7726676 135.945,33.586 C136.117668,33.3993324 136.255333,33.1846679 136.358,32.942 L137.52,33.614 C137.314666,34.1086691 137.023002,34.5029985 136.645,34.797 C136.266998,35.0910015 135.784003,35.238 135.196,35.238 C134.365329,35.238 133.698003,34.9113366 133.194,34.258 C132.689997,33.6046634 132.438,32.6666728 132.438,31.444 C132.438,30.8746638 132.503333,30.3543357 132.634,29.883 C132.764667,29.4116643 132.951332,29.0080017 133.194,28.672 C133.436668,28.3359983 133.723665,28.0770009 134.055,27.895 C134.386335,27.7129991 134.757331,27.622 135.168,27.622 C135.625336,27.622 136.014998,27.7153324 136.337,27.902 C136.659002,28.0886676 136.920332,28.3429984 137.121,28.665 C137.321668,28.9870016 137.468666,29.3673311 137.562,29.806 C137.655334,30.2446689 137.702,30.7206641 137.702,31.234 L137.702,31.836 L133.992,31.836 Z M136.19,30.688 C136.19,30.1559973 136.106001,29.724335 135.938,29.393 C135.769999,29.061665 135.508668,28.896 135.154,28.896 C134.948666,28.896 134.773667,28.9566661 134.629,29.078 C134.484333,29.1993339 134.367667,29.3509991 134.279,29.533 C134.190333,29.7150009 134.122667,29.9109989 134.076,30.121 C134.029333,30.331001 134.006,30.5199992 134.006,30.688 L136.19,30.688 Z M140.712,27.86 L140.712,28.994 L140.74,28.994 C140.870667,28.6113314 141.087665,28.2870013 141.391,28.021 C141.694335,27.7549987 142.069998,27.622 142.518,27.622 C142.910002,27.622 143.224999,27.7036659 143.463,27.867 C143.701001,28.0303342 143.885333,28.247332 144.016,28.518 C144.146667,28.788668 144.235333,29.0989983 144.282,29.449 C144.328667,29.7990018 144.352,30.1559982 144.352,30.52 L144.352,35 L142.77,35 L142.77,30.52 C142.77,30.3426658 142.760667,30.1630009 142.742,29.981 C142.723333,29.7989991 142.683667,29.6333341 142.623,29.484 C142.562333,29.3346659 142.473667,29.2156671 142.357,29.127 C142.240333,29.0383329 142.088668,28.994 141.902,28.994 C141.547332,28.994 141.265001,29.1713316 141.055,29.526 C140.844999,29.8806684 140.74,30.328664 140.74,30.87 L140.74,35 L139.158,35 L139.158,27.86 L140.712,27.86 Z" id="IdolToken" fill="#4A4A4A"></path>
                </g>
            </g>
        </g>
    </g>
</svg>