<?xml version="1.0" encoding="UTF-8"?>
<svg width="46px" height="16px" viewBox="0 0 46 16" version="1.1" xmlns="http://www.w3.org/2000/svg" xmlns:xlink="http://www.w3.org/1999/xlink">
    <!-- Generator: Sketch 50.2 (55047) - http://www.bohemiancoding.com/sketch -->
    <title>icon_logo</title>
    <desc>Created with Sketch.</desc>
    <defs></defs>
    <g id="Page-1" stroke="none" stroke-width="1" fill="none" fill-rule="evenodd">
        <g id="Desktop-HD" transform="translate(-74.000000, -16.000000)" fill="#000000" fill-rule="nonzero">
            <g id="icon_logo" transform="translate(74.000000, 16.000000)">
                <path d="M30.5952902,4.11431312 L28.8919122,5.81769116 C29.2587936,6.42042493 29.4684402,7.11487906 29.4684402,7.87484772 C29.4684402,10.0499305 27.7126505,11.8057201 25.5375677,11.8057201 C24.790702,11.8057201 24.083145,11.5960736 23.4804112,11.2291922 L21.7770331,12.9325702 C22.8252658,13.7056418 24.1224537,14.1773465 25.5244648,14.1773465 C28.9967355,14.1773465 31.8138607,11.3602213 31.8138607,7.88795063 C31.8400665,6.45973366 31.3814647,5.16254576 30.5952902,4.11431312 Z" id="Shape"></path>
                <path d="M21.6197982,7.86174482 C21.6197982,5.68666208 23.3755879,3.93087241 25.5506707,3.93087241 C26.2975364,3.93087241 27.0050934,4.14051894 27.6078272,4.50740036 L29.3112053,2.80402232 C28.2629726,2.03095074 26.9657847,1.55924606 25.5637736,1.55924606 C22.0915029,1.55924606 19.2743777,4.37637128 19.2743777,7.84864191 C19.2743777,9.25065307 19.7329795,10.547841 20.519154,11.5960736 L22.222532,9.89269556 C21.8294448,9.31616761 21.6197982,8.60861057 21.6197982,7.86174482 Z" id="Shape"></path>
                <path d="M2.72463768,13.9130435 L0.753623188,13.9130435 C0.71884058,13.9130435 0.695652174,13.8867215 0.695652174,13.8472385 L0.695652174,4.23971798 C0.695652174,4.20023502 0.71884058,4.17391304 0.753623188,4.17391304 L2.72463768,4.17391304 C2.75942029,4.17391304 2.7826087,4.20023502 2.7826087,4.23971798 L2.7826087,13.8472385 C2.7826087,13.8867215 2.75942029,13.9130435 2.72463768,13.9130435 Z" id="Shape"></path>
                <path d="M40.1342073,1.83440712 C37.041921,1.88681876 34.5916772,4.46809164 34.5916772,7.56037793 L34.5916772,13.823568 C34.5916772,13.8628767 34.617883,13.8890825 34.6571917,13.8890825 L36.8846861,13.8890825 C36.9239948,13.8890825 36.9502006,13.8628767 36.9502006,13.823568 L36.9502006,7.54727502 C36.9502006,5.7128679 38.4570351,4.16672475 40.2914422,4.19293057 C42.0734377,4.23223929 43.5016546,5.67355918 43.5016546,7.46865758 L43.5016546,13.823568 C43.5016546,13.8628767 43.5278605,13.8890825 43.5671692,13.8890825 L45.7946636,13.8890825 C45.8339723,13.8890825 45.8601781,13.8628767 45.8601781,13.823568 L45.8601781,7.46865758 C45.8601781,4.32395965 43.2789052,1.78199549 40.1342073,1.83440712 Z" id="Shape"></path>
                <circle id="Oval" cx="1.73913043" cy="1.73913043" r="1.73913043"></circle>
                <circle id="Oval" cx="32.3478261" cy="1.73913043" r="1.73913043"></circle>
                <circle id="Oval" cx="19.1304348" cy="14.2608696" r="1.73913043"></circle>
                <path d="M11.8712347,4.19293057 L15.6579751,4.19293057 C15.6972838,4.19293057 15.7234896,4.16672475 15.7234896,4.12741603 L15.7234896,1.89992166 C15.7234896,1.86061294 15.6972838,1.83440712 15.6579751,1.83440712 L11.8974405,1.83440712 C8.59550767,1.83440712 5.83079407,4.45498873 5.76527953,7.75692155 C5.7128679,11.1374718 8.42516986,13.8890825 11.7926172,13.8890825 L15.6579751,13.8890825 C15.6972838,13.8890825 15.7234896,13.8628767 15.7234896,13.823568 L15.7234896,11.5960736 C15.7234896,11.5567649 15.6972838,11.5305591 15.6579751,11.5305591 L11.7926172,11.5305591 C9.73546066,11.5305591 8.07139134,9.82718102 8.12380298,7.75692155 C8.17621461,5.76527953 9.86648974,4.19293057 11.8712347,4.19293057 Z" id="Shape"></path>
            </g>
        </g>
    </g>
</svg>